<svg width="88" height="24" viewBox="0 0 88 24" fill="none" xmlns="http://www.w3.org/2000/svg">
<path fill-rule="evenodd" clip-rule="evenodd" d="M33.8964 0.0188355C33.8862 0.0292172 33.8778 4.15878 33.8778 9.19557V18.3536H37.9741V0H35.9445C34.8283 0 33.9067 0.0084537 33.8964 0.0188355ZM10.3592 6.62801C10.3592 13.0275 10.3658 12.7443 10.2017 13.384C10.0063 14.1456 9.51572 14.7798 8.86513 15.1118C8.4859 15.3054 8.19756 15.3822 7.73417 15.4132C6.02682 15.5277 4.82356 14.7993 4.17151 13.2569C4.08062 13.042 3.94625 12.5501 3.90747 12.2899C3.88624 12.1481 3.86063 12.1263 3.76037 12.1649C3.71909 12.1806 3.61005 12.2153 3.51814 12.242C3.42622 12.2687 3.26317 12.319 3.15588 12.3538C3.0486 12.3886 2.88555 12.4387 2.79363 12.4651C2.70171 12.4915 2.59516 12.5241 2.55681 12.5375C2.51847 12.551 2.35542 12.6018 2.19456 12.6505C2.03356 12.6993 1.87066 12.7495 1.83231 12.7621C1.79396 12.7749 1.68741 12.8068 1.59549 12.8332C1.50343 12.8597 1.35926 12.9042 1.27495 12.9321C1.19065 12.9601 0.989981 13.023 0.829126 13.0721C0.668125 13.1212 0.505221 13.1722 0.466874 13.1857C0.428526 13.1991 0.321973 13.2314 0.230056 13.2577C0.137993 13.2838 0.0459298 13.3103 0.0254388 13.3165C-0.0954584 13.3529 0.236935 14.5481 0.550594 15.2053C1.28008 16.7329 2.785 17.9587 4.50741 18.4278C4.82444 18.5142 5.0396 18.5666 5.37126 18.6382C5.91237 18.7551 6.75762 18.8306 7.54609 18.8322C8.63285 18.8346 9.30964 18.7569 10.2756 18.5188C10.4276 18.4815 11.0372 18.2803 11.1534 18.2293C11.1993 18.2092 11.2809 18.1755 11.3344 18.1544C11.7208 18.0035 12.532 17.5171 12.8531 17.2439C13.2305 16.923 13.9817 16.0754 13.9817 15.9707C13.9817 15.9618 14.0297 15.8749 14.0886 15.7775C14.5013 15.0934 14.729 14.3618 14.8724 13.2569C14.8922 13.1047 14.9017 11.029 14.9015 6.89675L14.9014 0.762318H10.3592V6.62801ZM16.8106 9.76271C16.7855 14.6752 16.7819 14.6028 17.1059 15.5977C17.4196 16.5608 18.2029 17.5179 19.0811 18.0109C19.8734 18.4557 20.6624 18.6709 21.6779 18.7191C22.1384 18.741 23.2042 18.7139 23.2603 18.6787C23.274 18.6701 23.3708 18.651 23.4753 18.6361C24.7286 18.4582 26.0485 17.7905 26.8775 16.9149C27.2033 16.5708 27.3848 16.3269 27.7586 15.7315C27.8549 15.578 27.8683 15.5933 27.9265 15.9252C27.9524 16.0727 27.9845 16.2443 27.9976 16.3065C28.011 16.3685 28.0423 16.5337 28.0675 16.6735C28.0926 16.8133 28.1244 16.9785 28.1381 17.0406C28.1521 17.1026 28.1709 17.2107 28.1803 17.2806C28.1895 17.3504 28.2075 17.4458 28.2201 17.4924C28.2327 17.5389 28.2645 17.7042 28.2907 17.8594C28.317 18.0147 28.3501 18.1894 28.3644 18.2477L28.3905 18.3536H31.8715V5.70374H27.8031V9.03717C27.8031 12.381 27.8006 12.4812 27.7018 13.0029C27.5056 14.0406 26.9022 14.8434 25.9339 15.3558C24.9957 15.8522 23.4719 15.9213 22.5087 15.5114C21.8563 15.2336 21.2884 14.6248 21.0777 13.977C20.8864 13.3891 20.8935 13.5651 20.893 9.43791L20.8925 5.70374H16.8313L16.8106 9.76271ZM39.9154 7.75784C39.8876 10.8467 39.8924 13.2962 39.9266 13.5925C40.0339 14.5173 40.2545 15.3082 40.5614 15.8688C40.5742 15.8921 40.6192 15.9747 40.6615 16.0523C40.9755 16.628 41.6751 17.416 42.0912 17.6626C42.1411 17.6921 42.1818 17.7263 42.1818 17.7384C42.1818 17.7506 42.1951 17.7605 42.2115 17.7605C42.2279 17.7605 42.2812 17.7908 42.33 17.8277C42.6527 18.0717 43.35 18.3806 43.8956 18.5214C44.3933 18.6498 44.7041 18.6962 45.2324 18.7208C46.1278 18.7625 46.8755 18.6848 47.56 18.4789C47.6903 18.4396 47.8218 18.3968 47.8526 18.3836C47.8832 18.3702 47.9773 18.3311 48.0614 18.2965C48.4827 18.1239 49.1966 17.7215 49.3155 17.5898C49.3231 17.5814 49.4046 17.5163 49.4965 17.4451C49.961 17.0859 50.4394 16.492 50.7022 15.9489C50.9129 15.513 50.9125 15.5117 50.8951 16.5109C50.8766 17.5606 50.8354 17.7844 50.5409 18.4295C50.3087 18.9381 49.8134 19.4876 49.2343 19.8793C48.5423 20.3474 47.8277 20.5904 46.6543 20.757C46.3266 20.8034 45.034 20.8034 44.7176 20.757C44.2409 20.687 43.9212 20.6349 43.8259 20.6118C43.4188 20.5127 43.3091 20.4848 43.0875 20.4242C42.3677 20.2272 41.2978 19.7516 40.6353 19.3339C40.5587 19.2856 40.3479 19.1392 40.1668 19.0087C39.9858 18.878 39.8343 18.7757 39.8302 18.7812C39.8261 18.7867 39.577 19.2868 39.2768 19.8925C38.9765 20.498 38.6682 21.1183 38.5917 21.2706C38.4088 21.6345 38.4127 21.6197 38.4836 21.6878C39.2703 22.4424 41.2455 23.3382 42.8367 23.662C43.841 23.8665 44.0114 23.8921 44.8012 23.9589C45.6255 24.0284 47.1288 24.0066 47.6853 23.917C47.7774 23.9022 47.9278 23.8828 48.0197 23.8736C48.3438 23.8416 49.2649 23.6496 49.5662 23.5515C49.6046 23.539 49.7111 23.5064 49.8032 23.4791C49.8951 23.4518 49.9954 23.4192 50.0261 23.4066C50.0567 23.394 50.1632 23.3563 50.2629 23.3229C50.708 23.1736 51.8517 22.6116 52.0206 22.4593C52.0448 22.4375 52.0736 22.4196 52.0846 22.4196C52.0954 22.4196 52.176 22.3662 52.2634 22.3008C52.9109 21.8173 53.3843 21.3437 53.8806 20.683C53.9181 20.6332 54.2199 20.1335 54.2199 20.1213C54.2199 20.115 54.2613 20.0353 54.3119 19.9445C54.3624 19.8538 54.4447 19.6779 54.4945 19.5536C54.5442 19.4293 54.5963 19.3024 54.6102 19.2712C54.667 19.144 54.8176 18.5679 54.8872 18.2124C54.999 17.6395 55 17.5772 55 11.5229V5.70374H50.9059L50.8955 9.19794C50.8841 13.0322 50.899 12.6423 50.7417 13.2428C50.4498 14.3565 49.5955 15.2604 48.5065 15.6076C46.6884 16.1872 44.7277 15.3957 44.2927 13.9064C44.2836 13.8752 44.2514 13.78 44.2211 13.6946C44.1689 13.547 44.1155 13.3277 44.0503 12.9935C44.0307 12.8931 44.021 11.6566 44.021 9.27343V5.70374H39.9338L39.9154 7.75784Z" fill="#FBFBFB"/>
<path d="M66.0879 13.2929C66.0879 14.1564 66.5226 14.7167 67.2028 14.7167C67.8736 14.7167 68.3177 14.1655 68.3177 13.2929C68.3177 12.4294 67.8736 11.8691 67.2028 11.8691C66.5226 11.8691 66.0879 12.4294 66.0879 13.2929Z" fill="#F6F6F4"/>
<path d="M72.6057 11.7221C71.9821 11.7221 71.6231 12.1539 71.5381 12.8612H73.5694C73.5316 12.1355 73.1821 11.7221 72.6057 11.7221Z" fill="#F6F6F4"/>
<path d="M81.1137 14.285C81.1137 14.634 81.4349 14.8361 81.8884 14.8361C82.4931 14.8361 82.9372 14.3952 82.9372 13.743V13.5042L82.0869 13.596C81.416 13.6695 81.1137 13.9359 81.1137 14.285Z" fill="#F6F6F4"/>
<path fill-rule="evenodd" clip-rule="evenodd" d="M64.769 5.5C62.6874 5.5 61 7.18742 61 9.26895V15.231C61 17.3126 62.6874 19 64.769 19H84.231C86.3126 19 88 17.3126 88 15.231V9.26895C88 7.18742 86.3126 5.5 84.231 5.5H64.769ZM69.546 13.2929C69.546 14.8085 68.7712 15.7731 67.5902 15.7731C66.9383 15.7731 66.3903 15.4699 66.1068 14.9096H66.0974L65.9557 15.6353H64.8975V8.8378H66.1352V11.6486H66.1446C66.4375 11.1159 66.9477 10.8127 67.5902 10.8127C68.7712 10.8127 69.546 11.7681 69.546 13.2929ZM74.9205 14.5054C74.656 15.3046 73.8245 15.7914 72.823 15.7914C71.3019 15.7914 70.3098 14.7902 70.3098 13.247C70.3098 11.7589 71.2074 10.7944 72.6057 10.7944C73.9568 10.7944 74.8166 11.7313 74.8166 13.201C74.8166 13.3756 74.8072 13.5501 74.7788 13.642H71.5381C71.6042 14.3952 72.0955 14.8637 72.823 14.8637C73.3616 14.8637 73.7867 14.5973 73.9663 14.138L74.9205 14.5054ZM77.7428 15.7822C78.5176 15.7822 79.1034 15.3964 79.2923 14.7259L78.6971 14.0921C78.5837 14.5881 78.3192 14.7902 77.9696 14.7902C77.6011 14.7902 77.3838 14.5238 77.3838 14.0737V11.8691H79.0183V10.9505H77.3838V9.41651L76.1555 9.68289V10.9505H75.3241V11.8691H76.1555V14.285C76.1555 15.2035 76.7413 15.7822 77.7428 15.7822ZM82.9277 14.9831C82.6254 15.4699 82.0963 15.7455 81.4349 15.7455C80.5184 15.7455 79.876 15.2311 79.876 14.4044C79.876 13.5685 80.5468 12.9898 81.8034 12.8612L82.5687 12.7785C82.7955 12.7601 82.9655 12.6131 82.9655 12.3559C82.9655 11.961 82.6065 11.7129 82.1246 11.7129C81.5388 11.7129 81.1609 12.1447 81.142 12.6407L80.0082 12.3835C80.046 11.4925 80.8869 10.7944 82.1341 10.7944C83.3813 10.7944 84.1655 11.4925 84.1655 12.5397V15.6353H83.0695L82.9372 14.9831H82.9277Z" fill="#F6F6F4"/>
</svg>
